<svg xmlns="http://www.w3.org/2000/svg" width="20" height="13.81" viewBox="0 0 20 13.81">
  <metadata><?xpacket begin="﻿" id="W5M0MpCehiHzreSzNTczkc9d"?>
<x:xmpmeta xmlns:x="adobe:ns:meta/" x:xmptk="Adobe XMP Core 5.6-c138 79.159824, 2016/09/14-01:09:01        ">
   <rdf:RDF xmlns:rdf="http://www.w3.org/1999/02/22-rdf-syntax-ns#">
      <rdf:Description rdf:about=""/>
   </rdf:RDF>
</x:xmpmeta>
                                                                                                    
                                                                                                    
                                                                                                    
                                                                                                    
                                                                                                    
                                                                                                    
                                                                                                    
                                                                                                    
                                                                                                    
                                                                                                    
                                                                                                    
                                                                                                    
                                                                                                    
                                                                                                    
                                                                                                    
                                                                                                    
                                                                                                    
                                                                                                    
                                                                                                    
                                                                                                    
                           
<?xpacket end="w"?></metadata>
<defs>
    <style>
      .cls-1 {
        fill: #c6cacc;
        fill-rule: evenodd;
      }
    </style>
  </defs>
  <path class="cls-1" d="M435,2799.28a0.1,0.1,0,0,1-.038-0.03,3.636,3.636,0,0,0-2.637-.94l-0.031-.07h0.019a3.2,3.2,0,0,0,1.62-.63,0.2,0.2,0,0,0-.211-0.3,5.85,5.85,0,0,0-1.266.29q0.72-.435.561-0.6a2.523,2.523,0,0,0-1.521.69,0.753,0.753,0,0,0,.224-0.52,3.959,3.959,0,0,0-.673.53,10.371,10.371,0,0,0-.979,1.19l-0.012.03a10.225,10.225,0,0,0-1.36,2.98l-0.1.07-0.019.02a4.966,4.966,0,0,0-1.4-1.15,17.009,17.009,0,0,0-2.308-1.16,19.843,19.843,0,0,0-2.936-1.16,2.763,2.763,0,0,0,1.615,2.49v0.02a3.411,3.411,0,0,0-1.1.15q0.1,1.455,2.182,2.01l-0.006.02a1.638,1.638,0,0,0-1.34.52,2.431,2.431,0,0,0,2.425,1.21,1.575,1.575,0,0,0-.53.37,0.737,0.737,0,0,0-.212.74,1.354,1.354,0,0,0,1.359.6h0l0.038,0.04c-0.007.01-.013,0.01-0.019,0.02a5.213,5.213,0,0,1-4.134,1.51l-0.025.01a5.372,5.372,0,0,1-3.179-1.34,9.782,9.782,0,0,0,4.551,3.39,11.389,11.389,0,0,0,6.465.14h0.038a10.2,10.2,0,0,0,5.317-3.5,6.889,6.889,0,0,0,1.266-2.66,2.665,2.665,0,0,0,2.363-.89l-0.012-.02a4.945,4.945,0,0,1-2.127-.12v-0.11h0.007c1.154-.12,1.833-0.47,2.051-1.06a3.371,3.371,0,0,1-2.382.03A4.77,4.77,0,0,0,435,2799.28Z" transform="translate(-419 -2797)"/>
</svg>
