<svg xmlns="http://www.w3.org/2000/svg" width="16" height="16" viewBox="0 0 16 16">
  <metadata><?xpacket begin="﻿" id="W5M0MpCehiHzreSzNTczkc9d"?>
<x:xmpmeta xmlns:x="adobe:ns:meta/" x:xmptk="Adobe XMP Core 5.6-c138 79.159824, 2016/09/14-01:09:01        ">
   <rdf:RDF xmlns:rdf="http://www.w3.org/1999/02/22-rdf-syntax-ns#">
      <rdf:Description rdf:about=""/>
   </rdf:RDF>
</x:xmpmeta>
                                                                                                    
                                                                                                    
                                                                                                    
                                                                                                    
                                                                                                    
                                                                                                    
                                                                                                    
                                                                                                    
                                                                                                    
                                                                                                    
                                                                                                    
                                                                                                    
                                                                                                    
                                                                                                    
                                                                                                    
                                                                                                    
                                                                                                    
                                                                                                    
                                                                                                    
                                                                                                    
                           
<?xpacket end="w"?></metadata>
<defs>
    <style>
      .cls-1 {
        fill: #c6cacc;
        fill-rule: evenodd;
      }
    </style>
  </defs>
  <path class="cls-1" d="M473.6,2803.22v-0.03l-0.016.03H473.6Zm6.213-7.22H466.182a1.163,1.163,0,0,0-1.182,1.15v13.7a1.163,1.163,0,0,0,1.182,1.15h13.635a1.163,1.163,0,0,0,1.183-1.15v-13.7A1.163,1.163,0,0,0,479.817,2796Zm-9.967,13.39h-2.417v-7.22h2.417v7.22Zm-1.208-8.21h-0.016A1.381,1.381,0,1,1,468.642,2801.18Zm9.922,8.21h-2.417v-3.86c0-.97-0.349-1.64-1.224-1.64a1.326,1.326,0,0,0-1.24.88,1.661,1.661,0,0,0-.079.59v4.03h-2.417s0.032-6.54,0-7.22H473.6v1.02a2.4,2.4,0,0,1,2.178-1.19c1.59,0,2.782,1.03,2.782,3.25v4.14Z" transform="translate(-465 -2796)"/>
</svg>
