<?xml version="1.0" standalone="no"?>
<!DOCTYPE svg PUBLIC "-//W3C//DTD SVG 20010904//EN"
 "http://www.w3.org/TR/2001/REC-SVG-20010904/DTD/svg10.dtd">
<svg version="1.0" xmlns="http://www.w3.org/2000/svg"
 width="128.000000pt" height="128.000000pt" viewBox="0 0 128.000000 128.000000"
 preserveAspectRatio="xMidYMid meet">
<metadata>
Created by potrace 1.11, written by Peter Selinger 2001-2013
</metadata>
<g transform="translate(0.000000,128.000000) scale(0.100000,-0.100000)"
fill="#000000" stroke="none">
<path d="M565 1184 c-43 -22 -65 -44 -85 -84 -43 -85 -360 -910 -360 -936 0
-71 71 -130 144 -121 56 8 76 34 127 167 l43 110 205 -2 204 -3 42 -100 c54
-132 60 -142 95 -160 37 -19 73 -19 114 0 59 28 81 98 54 176 -32 96 -353 878
-369 901 -42 58 -151 85 -214 52z m-39 -236 c-8 -42 -21 -55 -40 -39 -21 18
-2 71 26 71 18 0 20 -4 14 -32z m179 -243 c32 -88 60 -166 62 -172 4 -10 -25
-13 -126 -13 -72 0 -131 3 -131 8 0 21 124 352 130 345 4 -4 33 -80 65 -168z
m-220 155 c8 -12 -52 -172 -68 -182 -14 -9 -27 -1 -27 17 0 7 14 50 31 94 29
75 48 97 64 71z"/>
</g>
</svg>
